<mxfile host="app.diagrams.net" modified="2022-04-03T16:20:26.334Z" agent="5.0 (Macintosh)" etag="u9NzU6r5hSw7qYfMMgCt" version="17.4.0" type="github">
  <diagram id="TSGGnocyFnDA9PHzq-mA" name="Page-1">
    <mxGraphModel dx="1426" dy="820" grid="1" gridSize="10" guides="1" tooltips="1" connect="1" arrows="1" fold="1" page="1" pageScale="1" pageWidth="850" pageHeight="1100" math="0" shadow="0">
      <root>
        <mxCell id="0" />
        <mxCell id="1" parent="0" />
        <mxCell id="q9UuQ3RkGMUb68MoBsoO-9" value="" style="edgeStyle=orthogonalEdgeStyle;rounded=0;orthogonalLoop=1;jettySize=auto;html=1;" edge="1" parent="1" source="q9UuQ3RkGMUb68MoBsoO-1" target="q9UuQ3RkGMUb68MoBsoO-2">
          <mxGeometry relative="1" as="geometry" />
        </mxCell>
        <mxCell id="q9UuQ3RkGMUb68MoBsoO-1" value="" style="outlineConnect=0;dashed=0;verticalLabelPosition=bottom;verticalAlign=top;align=center;html=1;shape=mxgraph.aws3.mysql_db_instance_2;fillColor=#2E73B8;gradientColor=none;" vertex="1" parent="1">
          <mxGeometry x="47" y="433" width="60" height="63" as="geometry" />
        </mxCell>
        <mxCell id="q9UuQ3RkGMUb68MoBsoO-10" value="" style="edgeStyle=orthogonalEdgeStyle;rounded=0;orthogonalLoop=1;jettySize=auto;html=1;" edge="1" parent="1" source="q9UuQ3RkGMUb68MoBsoO-2" target="q9UuQ3RkGMUb68MoBsoO-6">
          <mxGeometry relative="1" as="geometry" />
        </mxCell>
        <mxCell id="q9UuQ3RkGMUb68MoBsoO-2" value="" style="sketch=0;points=[[0,0,0],[0.25,0,0],[0.5,0,0],[0.75,0,0],[1,0,0],[0,1,0],[0.25,1,0],[0.5,1,0],[0.75,1,0],[1,1,0],[0,0.25,0],[0,0.5,0],[0,0.75,0],[1,0.25,0],[1,0.5,0],[1,0.75,0]];outlineConnect=0;fontColor=#232F3E;gradientColor=#4D72F3;gradientDirection=north;fillColor=#3334B9;strokeColor=#ffffff;dashed=0;verticalLabelPosition=bottom;verticalAlign=top;align=center;html=1;fontSize=12;fontStyle=0;aspect=fixed;shape=mxgraph.aws4.resourceIcon;resIcon=mxgraph.aws4.database_migration_service;" vertex="1" parent="1">
          <mxGeometry x="177" y="426" width="78" height="78" as="geometry" />
        </mxCell>
        <mxCell id="q9UuQ3RkGMUb68MoBsoO-12" value="" style="edgeStyle=orthogonalEdgeStyle;rounded=0;orthogonalLoop=1;jettySize=auto;html=1;" edge="1" parent="1" source="q9UuQ3RkGMUb68MoBsoO-4" target="q9UuQ3RkGMUb68MoBsoO-5">
          <mxGeometry relative="1" as="geometry" />
        </mxCell>
        <mxCell id="q9UuQ3RkGMUb68MoBsoO-4" value="" style="sketch=0;points=[[0,0,0],[0.25,0,0],[0.5,0,0],[0.75,0,0],[1,0,0],[0,1,0],[0.25,1,0],[0.5,1,0],[0.75,1,0],[1,1,0],[0,0.25,0],[0,0.5,0],[0,0.75,0],[1,0.25,0],[1,0.5,0],[1,0.75,0]];outlineConnect=0;fontColor=#232F3E;gradientColor=#945DF2;gradientDirection=north;fillColor=#5A30B5;strokeColor=#ffffff;dashed=0;verticalLabelPosition=bottom;verticalAlign=top;align=center;html=1;fontSize=12;fontStyle=0;aspect=fixed;shape=mxgraph.aws4.resourceIcon;resIcon=mxgraph.aws4.athena;" vertex="1" parent="1">
          <mxGeometry x="570" y="437" width="78" height="78" as="geometry" />
        </mxCell>
        <mxCell id="q9UuQ3RkGMUb68MoBsoO-5" value="" style="sketch=0;points=[[0,0,0],[0.25,0,0],[0.5,0,0],[0.75,0,0],[1,0,0],[0,1,0],[0.25,1,0],[0.5,1,0],[0.75,1,0],[1,1,0],[0,0.25,0],[0,0.5,0],[0,0.75,0],[1,0.25,0],[1,0.5,0],[1,0.75,0]];outlineConnect=0;fontColor=#232F3E;gradientColor=#945DF2;gradientDirection=north;fillColor=#5A30B5;strokeColor=#ffffff;dashed=0;verticalLabelPosition=bottom;verticalAlign=top;align=center;html=1;fontSize=12;fontStyle=0;aspect=fixed;shape=mxgraph.aws4.resourceIcon;resIcon=mxgraph.aws4.quicksight;" vertex="1" parent="1">
          <mxGeometry x="700" y="437" width="78" height="78" as="geometry" />
        </mxCell>
        <mxCell id="q9UuQ3RkGMUb68MoBsoO-22" value="" style="edgeStyle=orthogonalEdgeStyle;rounded=0;orthogonalLoop=1;jettySize=auto;html=1;" edge="1" parent="1" source="q9UuQ3RkGMUb68MoBsoO-6" target="q9UuQ3RkGMUb68MoBsoO-8">
          <mxGeometry relative="1" as="geometry" />
        </mxCell>
        <mxCell id="q9UuQ3RkGMUb68MoBsoO-34" value="Aurora" style="edgeLabel;html=1;align=center;verticalAlign=middle;resizable=0;points=[];" vertex="1" connectable="0" parent="q9UuQ3RkGMUb68MoBsoO-22">
          <mxGeometry x="-0.8469" y="-2" relative="1" as="geometry">
            <mxPoint as="offset" />
          </mxGeometry>
        </mxCell>
        <mxCell id="q9UuQ3RkGMUb68MoBsoO-6" value="" style="sketch=0;points=[[0,0,0],[0.25,0,0],[0.5,0,0],[0.75,0,0],[1,0,0],[0,1,0],[0.25,1,0],[0.5,1,0],[0.75,1,0],[1,1,0],[0,0.25,0],[0,0.5,0],[0,0.75,0],[1,0.25,0],[1,0.5,0],[1,0.75,0]];outlineConnect=0;fontColor=#232F3E;gradientColor=#4D72F3;gradientDirection=north;fillColor=#3334B9;strokeColor=#ffffff;dashed=0;verticalLabelPosition=bottom;verticalAlign=top;align=center;html=1;fontSize=12;fontStyle=0;aspect=fixed;shape=mxgraph.aws4.resourceIcon;resIcon=mxgraph.aws4.aurora;" vertex="1" parent="1">
          <mxGeometry x="317" y="426" width="78" height="78" as="geometry" />
        </mxCell>
        <mxCell id="q9UuQ3RkGMUb68MoBsoO-13" value="" style="edgeStyle=orthogonalEdgeStyle;rounded=0;orthogonalLoop=1;jettySize=auto;html=1;" edge="1" parent="1" source="q9UuQ3RkGMUb68MoBsoO-7" target="q9UuQ3RkGMUb68MoBsoO-8">
          <mxGeometry relative="1" as="geometry" />
        </mxCell>
        <mxCell id="q9UuQ3RkGMUb68MoBsoO-7" value="User" style="html=1;strokeColor=none;fillColor=#0079D6;labelPosition=center;verticalLabelPosition=middle;verticalAlign=top;align=center;fontSize=12;outlineConnect=0;spacingTop=-6;fontColor=#FFFFFF;sketch=0;shape=mxgraph.sitemap.user;" vertex="1" parent="1">
          <mxGeometry x="114" y="586" width="120" height="70" as="geometry" />
        </mxCell>
        <mxCell id="q9UuQ3RkGMUb68MoBsoO-25" value="" style="edgeStyle=orthogonalEdgeStyle;rounded=0;orthogonalLoop=1;jettySize=auto;html=1;" edge="1" parent="1" source="q9UuQ3RkGMUb68MoBsoO-8" target="q9UuQ3RkGMUb68MoBsoO-24">
          <mxGeometry relative="1" as="geometry" />
        </mxCell>
        <mxCell id="q9UuQ3RkGMUb68MoBsoO-8" value="" style="sketch=0;outlineConnect=0;fontColor=#232F3E;gradientColor=none;fillColor=#3F8624;strokeColor=none;dashed=0;verticalLabelPosition=bottom;verticalAlign=top;align=center;html=1;fontSize=12;fontStyle=0;aspect=fixed;pointerEvents=1;shape=mxgraph.aws4.bucket_with_objects;" vertex="1" parent="1">
          <mxGeometry x="319" y="582" width="75" height="78" as="geometry" />
        </mxCell>
        <mxCell id="q9UuQ3RkGMUb68MoBsoO-14" value="&lt;div&gt;On prem database&lt;/div&gt;&lt;div&gt;&lt;span style=&quot;white-space: pre&quot;&gt;	&lt;/span&gt;&lt;/div&gt;" style="text;html=1;align=center;verticalAlign=middle;resizable=0;points=[];autosize=1;strokeColor=none;fillColor=none;" vertex="1" parent="1">
          <mxGeometry x="30" y="494" width="110" height="30" as="geometry" />
        </mxCell>
        <mxCell id="q9UuQ3RkGMUb68MoBsoO-16" value="Data Catalog" style="text;html=1;align=center;verticalAlign=middle;resizable=0;points=[];autosize=1;strokeColor=none;fillColor=none;" vertex="1" parent="1">
          <mxGeometry x="432" y="515" width="90" height="20" as="geometry" />
        </mxCell>
        <mxCell id="q9UuQ3RkGMUb68MoBsoO-17" value="Athena" style="text;html=1;align=center;verticalAlign=middle;resizable=0;points=[];autosize=1;strokeColor=none;fillColor=none;" vertex="1" parent="1">
          <mxGeometry x="585" y="512" width="50" height="20" as="geometry" />
        </mxCell>
        <mxCell id="q9UuQ3RkGMUb68MoBsoO-18" value="QuickSight" style="text;html=1;align=center;verticalAlign=middle;resizable=0;points=[];autosize=1;strokeColor=none;fillColor=none;" vertex="1" parent="1">
          <mxGeometry x="695" y="510" width="70" height="20" as="geometry" />
        </mxCell>
        <mxCell id="q9UuQ3RkGMUb68MoBsoO-19" value="User Click Data" style="text;html=1;align=center;verticalAlign=middle;resizable=0;points=[];autosize=1;strokeColor=none;fillColor=none;" vertex="1" parent="1">
          <mxGeometry x="114" y="660" width="100" height="20" as="geometry" />
        </mxCell>
        <mxCell id="q9UuQ3RkGMUb68MoBsoO-20" value="S3 Bucket" style="text;html=1;align=center;verticalAlign=middle;resizable=0;points=[];autosize=1;strokeColor=none;fillColor=none;" vertex="1" parent="1">
          <mxGeometry x="319" y="661" width="70" height="20" as="geometry" />
        </mxCell>
        <mxCell id="q9UuQ3RkGMUb68MoBsoO-27" value="" style="edgeStyle=orthogonalEdgeStyle;rounded=0;orthogonalLoop=1;jettySize=auto;html=1;entryX=0;entryY=0.75;entryDx=0;entryDy=0;entryPerimeter=0;" edge="1" parent="1" source="q9UuQ3RkGMUb68MoBsoO-23" target="q9UuQ3RkGMUb68MoBsoO-4">
          <mxGeometry relative="1" as="geometry" />
        </mxCell>
        <mxCell id="q9UuQ3RkGMUb68MoBsoO-23" value="" style="sketch=0;outlineConnect=0;fontColor=#232F3E;gradientColor=none;fillColor=#4D27AA;strokeColor=none;dashed=0;verticalLabelPosition=bottom;verticalAlign=top;align=center;html=1;fontSize=12;fontStyle=0;aspect=fixed;pointerEvents=1;shape=mxgraph.aws4.glue_data_catalog;" vertex="1" parent="1">
          <mxGeometry x="444" y="442" width="72" height="78" as="geometry" />
        </mxCell>
        <mxCell id="q9UuQ3RkGMUb68MoBsoO-26" value="" style="edgeStyle=orthogonalEdgeStyle;rounded=0;orthogonalLoop=1;jettySize=auto;html=1;" edge="1" parent="1" source="q9UuQ3RkGMUb68MoBsoO-24" target="q9UuQ3RkGMUb68MoBsoO-23">
          <mxGeometry relative="1" as="geometry" />
        </mxCell>
        <mxCell id="q9UuQ3RkGMUb68MoBsoO-24" value="" style="sketch=0;points=[[0,0,0],[0.25,0,0],[0.5,0,0],[0.75,0,0],[1,0,0],[0,1,0],[0.25,1,0],[0.5,1,0],[0.75,1,0],[1,1,0],[0,0.25,0],[0,0.5,0],[0,0.75,0],[1,0.25,0],[1,0.5,0],[1,0.75,0]];outlineConnect=0;fontColor=#232F3E;gradientColor=#945DF2;gradientDirection=north;fillColor=#5A30B5;strokeColor=#ffffff;dashed=0;verticalLabelPosition=bottom;verticalAlign=top;align=center;html=1;fontSize=12;fontStyle=0;aspect=fixed;shape=mxgraph.aws4.resourceIcon;resIcon=mxgraph.aws4.glue;" vertex="1" parent="1">
          <mxGeometry x="441" y="582" width="78" height="78" as="geometry" />
        </mxCell>
        <mxCell id="q9UuQ3RkGMUb68MoBsoO-28" value="" style="sketch=0;points=[[0,0,0],[0.25,0,0],[0.5,0,0],[0.75,0,0],[1,0,0],[0,1,0],[0.25,1,0],[0.5,1,0],[0.75,1,0],[1,1,0],[0,0.25,0],[0,0.5,0],[0,0.75,0],[1,0.25,0],[1,0.5,0],[1,0.75,0]];outlineConnect=0;fontColor=#232F3E;gradientColor=#945DF2;gradientDirection=north;fillColor=#5A30B5;strokeColor=#ffffff;dashed=0;verticalLabelPosition=bottom;verticalAlign=top;align=center;html=1;fontSize=12;fontStyle=0;aspect=fixed;shape=mxgraph.aws4.resourceIcon;resIcon=mxgraph.aws4.emr;" vertex="1" parent="1">
          <mxGeometry x="720" y="631" width="59" height="59" as="geometry" />
        </mxCell>
        <mxCell id="q9UuQ3RkGMUb68MoBsoO-29" value="" style="sketch=0;points=[[0,0,0],[0.25,0,0],[0.5,0,0],[0.75,0,0],[1,0,0],[0,1,0],[0.25,1,0],[0.5,1,0],[0.75,1,0],[1,1,0],[0,0.25,0],[0,0.5,0],[0,0.75,0],[1,0.25,0],[1,0.5,0],[1,0.75,0]];outlineConnect=0;fontColor=#232F3E;gradientColor=#945DF2;gradientDirection=north;fillColor=#5A30B5;strokeColor=#ffffff;dashed=0;verticalLabelPosition=bottom;verticalAlign=top;align=center;html=1;fontSize=12;fontStyle=0;aspect=fixed;shape=mxgraph.aws4.resourceIcon;resIcon=mxgraph.aws4.redshift;" vertex="1" parent="1">
          <mxGeometry x="720" y="725.5" width="64.5" height="64.5" as="geometry" />
        </mxCell>
        <mxCell id="q9UuQ3RkGMUb68MoBsoO-30" value="AWS Glue" style="text;html=1;align=center;verticalAlign=middle;resizable=0;points=[];autosize=1;strokeColor=none;fillColor=none;" vertex="1" parent="1">
          <mxGeometry x="439" y="660" width="70" height="20" as="geometry" />
        </mxCell>
        <mxCell id="q9UuQ3RkGMUb68MoBsoO-31" value="EMR (Presto, Hive)" style="text;html=1;align=center;verticalAlign=middle;resizable=0;points=[];autosize=1;strokeColor=none;fillColor=none;" vertex="1" parent="1">
          <mxGeometry x="700" y="690" width="120" height="20" as="geometry" />
        </mxCell>
        <mxCell id="q9UuQ3RkGMUb68MoBsoO-32" value="Redshift" style="text;html=1;align=center;verticalAlign=middle;resizable=0;points=[];autosize=1;strokeColor=none;fillColor=none;" vertex="1" parent="1">
          <mxGeometry x="720" y="790" width="60" height="20" as="geometry" />
        </mxCell>
        <mxCell id="q9UuQ3RkGMUb68MoBsoO-33" value="DMS" style="text;html=1;align=center;verticalAlign=middle;resizable=0;points=[];autosize=1;strokeColor=none;fillColor=none;" vertex="1" parent="1">
          <mxGeometry x="180" y="510" width="40" height="20" as="geometry" />
        </mxCell>
      </root>
    </mxGraphModel>
  </diagram>
</mxfile>
